<svg width="1923" height="1915" viewBox="0 0 1923 1915" fill="none" xmlns="http://www.w3.org/2000/svg">
<g clip-path="url(#clip0_4_53)">
<path fill-rule="evenodd" clip-rule="evenodd" d="M144.25 634.82L21.6001 584.32L132.1 493.32L144.25 553.82V634.82ZM1899.25 601.32L1774 552.32V633.32L1786.25 693.82L1899.25 601.32ZM1899.25 1342.32L1774 1293.32V1374.32L1786.25 1434.82L1899.25 1342.32ZM23.7551 1323.32L144.25 1375.82V1294.82L132.1 1234.32L23.7551 1323.32Z" fill="#0079E9"/>
<path fill-rule="evenodd" clip-rule="evenodd" d="M1321.1 1897.32L1426.5 1810.82L1355.64 1772.65L1296.78 1754.04L1321.1 1897.32ZM577 1899.82L681.65 1813.82L609.637 1776.07L550.783 1757.45L577 1899.82ZM1226.67 116.321L1332.66 29.3196L1353.65 174.568L1294.84 155.863L1226.67 116.321ZM590.6 30.3214L489.1 113.321L556.344 155.591L615.149 174.295L590.6 30.3214Z" fill="#0079E9"/>
<path fill-rule="evenodd" clip-rule="evenodd" d="M534 97.3195C494.788 97.3195 463 129.107 463 168.319V544.319C463 555.365 454.046 564.319 443 564.319H71C31.7878 564.319 0 596.107 0 635.319C0 674.532 31.7877 706.319 71 706.319H443C454.046 706.319 463 715.274 463 726.319V1285.32C463 1296.37 454.046 1305.32 443 1305.32H71C31.7878 1305.32 0 1337.11 0 1376.32C0 1415.53 31.7877 1447.32 71 1447.32H443C454.046 1447.32 463 1456.27 463 1467.32V1843.32C463 1882.53 494.788 1914.32 534 1914.32C573.212 1914.32 605 1882.53 605 1843.32V1467.32C605 1456.27 613.954 1447.32 625 1447.32H1184C1195.05 1447.32 1204 1456.27 1204 1467.32V1843.32C1204 1882.53 1235.79 1914.32 1275 1914.32C1314.21 1914.32 1346 1882.53 1346 1843.32V1467.32C1346 1456.27 1354.95 1447.32 1366 1447.32H1746C1785.21 1447.32 1817 1415.53 1817 1376.32C1817 1337.11 1785.21 1305.32 1746 1305.32H1366C1354.95 1305.32 1346 1296.37 1346 1285.32V726.319C1346 715.274 1354.95 706.319 1366 706.319H1746C1785.21 706.319 1817 674.532 1817 635.319C1817 596.107 1785.21 564.319 1746 564.319H1366C1354.95 564.319 1346 555.365 1346 544.319V168.319C1346 129.107 1314.21 97.3195 1275 97.3195C1235.79 97.3195 1204 129.107 1204 168.319V544.319C1204 555.365 1195.05 564.319 1184 564.319H625C613.954 564.319 605 555.365 605 544.319V168.319C605 129.107 573.212 97.3195 534 97.3195ZM625 706.319C613.954 706.319 605 715.274 605 726.319V1285.32C605 1296.37 613.954 1305.32 625 1305.32H1184C1195.05 1305.32 1204 1296.37 1204 1285.32V726.319C1204 715.274 1195.05 706.319 1184 706.319H625Z" fill="#0079E9"/>
<path fill-rule="evenodd" clip-rule="evenodd" d="M640 10.3195C600.788 10.3195 569 42.1073 569 81.3195V456.32C569 467.918 559.598 477.32 548 477.32H177C137.788 477.32 106 509.107 106 548.32C106 587.532 137.788 619.32 177 619.32H548C559.598 619.32 569 628.722 569 640.32V1197.32C569 1208.92 559.598 1218.32 548 1218.32H177C137.788 1218.32 106 1250.11 106 1289.32C106 1328.53 137.788 1360.32 177 1360.32H548C559.598 1360.32 569 1369.72 569 1381.32V1756.32C569 1795.53 600.788 1827.32 640 1827.32C679.212 1827.32 711 1795.53 711 1756.32V1381.32C711 1369.72 720.402 1360.32 732 1360.32H1289C1300.6 1360.32 1310 1369.72 1310 1381.32V1756.32C1310 1795.53 1341.79 1827.32 1381 1827.32C1420.21 1827.32 1452 1795.53 1452 1756.32V1381.32C1452 1369.72 1461.4 1360.32 1473 1360.32H1852C1891.21 1360.32 1923 1328.53 1923 1289.32C1923 1250.11 1891.21 1218.32 1852 1218.32H1473C1461.4 1218.32 1452 1208.92 1452 1197.32V640.32C1452 628.722 1461.4 619.32 1473 619.32H1852C1891.21 619.32 1923 587.532 1923 548.32C1923 509.107 1891.21 477.32 1852 477.32H1473C1461.4 477.32 1452 467.917 1452 456.32V81.3195C1452 42.1073 1420.21 10.3195 1381 10.3195C1341.79 10.3195 1310 42.1073 1310 81.3195V456.32C1310 467.918 1300.6 477.32 1289 477.32H732C720.402 477.32 711 467.917 711 456.32V81.3195C711 42.1073 679.212 10.3195 640 10.3195ZM732 619.32C720.402 619.32 711 628.722 711 640.32V1197.32C711 1208.92 720.402 1218.32 732 1218.32H1289C1300.6 1218.32 1310 1208.92 1310 1197.32V640.32C1310 628.722 1300.6 619.32 1289 619.32H732Z" fill="#0085FF"/>
</g>
<defs>
<clipPath id="clip0_4_53">
<rect width="1923" height="1915" fill="white"/>
</clipPath>
</defs>
</svg>