<svg width="2002" height="2002" viewBox="0 0 2002 2002" fill="none" xmlns="http://www.w3.org/2000/svg">
<path d="M147.883 589.977L418 530V798.47L38 907L147.883 589.977Z" fill="#E9C548"/>
<path d="M1698 1118.02L1969 1081L1844.44 1437L1698 1385.74V1118.02Z" fill="#E9C548"/>
<path fill-rule="evenodd" clip-rule="evenodd" d="M950.316 2002C1475.16 2002 1900.63 1618.95 1900.63 1146.44C1900.63 673.934 1475.16 290.889 950.316 290.889C425.471 290.889 0 673.934 0 1146.44C0 1618.95 425.471 2002 950.316 2002ZM950.316 1431.63C1125.26 1431.63 1267.09 1303.95 1267.09 1146.44C1267.09 988.941 1125.26 861.259 950.316 861.259C775.368 861.259 633.544 988.941 633.544 1146.44C633.544 1303.95 775.368 1431.63 950.316 1431.63Z" fill="#E9C548"/>
<path fill-rule="evenodd" clip-rule="evenodd" d="M1051.68 1711.11C1576.53 1711.11 2002 1328.07 2002 855.556C2002 383.045 1576.53 0 1051.68 0C526.838 0 101.367 383.045 101.367 855.556C101.367 1328.07 526.838 1711.11 1051.68 1711.11ZM1051.68 1140.74C1226.63 1140.74 1368.46 1013.06 1368.46 855.556C1368.46 698.052 1226.63 570.37 1051.68 570.37C876.735 570.37 734.911 698.052 734.911 855.556C734.911 1013.06 876.735 1140.74 1051.68 1140.74Z" fill="#FFD850"/>
<path fill-rule="evenodd" clip-rule="evenodd" d="M1051.68 1711.11C1576.53 1711.11 2002 1328.07 2002 855.556C2002 383.045 1576.53 0 1051.68 0C526.838 0 101.367 383.045 101.367 855.556C101.367 1328.07 526.838 1711.11 1051.68 1711.11ZM1051.68 1140.74C1226.63 1140.74 1368.46 1013.06 1368.46 855.556C1368.46 698.052 1226.63 570.37 1051.68 570.37C876.735 570.37 734.911 698.052 734.911 855.556C734.911 1013.06 876.735 1140.74 1051.68 1140.74Z" fill="#FFD850"/>
</svg>