<svg width="1771" height="1771" viewBox="0 0 1771 1951" fill="none" xmlns="http://www.w3.org/2000/svg">
<path d="M1686.34 1287L1758 1300.83L1642.11 1594L1526 1505.5L1686.34 1287Z" fill="#E14343"/>
<path d="M1691.88 358L1759 380.069L1640.89 678L1531 575.931L1691.88 358Z" fill="#E14343"/>
<path d="M1691.88 358L1759 380.069L1640.89 678L1531 575.931L1691.88 358Z" fill="#E14343"/>
<path d="M120.332 360L319 467.98L200.854 767L19 645.177L120.332 360Z" fill="#E14343"/>
<path d="M120.422 1281L319 1394.37L200.94 1693L18 1568.57L120.422 1281Z" fill="#E14343"/>
<path fill-rule="evenodd" clip-rule="evenodd" d="M1656.95 668.878C1660.08 665.757 1660.08 660.696 1656.95 657.574L1296.05 297.271C1292.92 294.15 1287.85 294.15 1284.72 297.271L835.662 745.586C832.535 748.708 827.466 748.708 824.339 745.586L375.275 297.271C372.149 294.15 367.079 294.15 363.952 297.271L3.04808 657.574C-0.078676 660.695 -0.0787378 665.757 3.04806 668.878L452.111 1117.19C455.238 1120.31 455.238 1125.38 452.112 1128.5L3.04821 1576.81C-0.0785464 1579.93 -0.0786328 1585 3.04821 1588.12L363.952 1948.42C367.079 1951.54 372.149 1951.54 375.275 1948.42L824.339 1500.1C827.466 1496.98 832.535 1496.98 835.662 1500.1L1284.72 1948.42C1287.85 1951.54 1292.92 1951.54 1296.05 1948.42L1656.95 1588.12C1660.08 1584.99 1660.08 1579.93 1656.95 1576.81L1207.89 1128.5C1204.76 1125.38 1204.76 1120.31 1207.89 1117.19L1656.95 668.878Z" fill="#E14343"/>
<rect width="525.97" height="1827.06" rx="5" transform="matrix(0.707696 0.706517 -0.707696 0.706517 1400.74 -2.04333)" fill="#FE4A4A"/>
<rect width="525.97" height="1827.06" rx="5" transform="matrix(0.707696 -0.706517 0.707696 0.706517 107.735 369.564)" fill="#FE4A4A"/>
</svg>
